HIERARCHY
ROOT Hips
{
	OFFSET 0.00 0.00 0.00
	CHANNELS 6 Xposition Yposition Zposition Xrotation Yrotation Zrotation
	JOINT Spine
	{
		OFFSET 0.00000 9.62115 0.00000
		CHANNELS 3 Xrotation Yrotation Zrotation
		JOINT Head
		{
			OFFSET 0.00000 12.77195 0.00000
			CHANNELS 3 Xrotation Yrotation Zrotation
			End Site
			{
				OFFSET 0.00000 4.52755 0.00000
			}
		}
		JOINT LeftShoulder
		{
			OFFSET 0.00000 7.40057 0.00000
			CHANNELS 3 Xrotation Yrotation Zrotation
			JOINT LeftArm
			{
				OFFSET 8.34930 0.00000 0.00000
				CHANNELS 3 Xrotation Yrotation Zrotation
				JOINT LeftForeArm
				{
					OFFSET 11.33484 0.00000 0.00000
					CHANNELS 3 Yrotation Zrotation Xrotation
					JOINT LeftHand
					{
						OFFSET 9.69418 0.00000 0.00000
						CHANNELS 3 Xrotation Yrotation Zrotation
						JOINT LeftHandThumb1
						{
							OFFSET 0.00000 0.00000 0.00000
							CHANNELS 3 Xrotation Zrotation Yrotation
							End Site
							{
								OFFSET 0.00000 0.00000 3.93700
							}
						}
						End Site
						{
							OFFSET 3.93700 0.00000 0.00000
						}
					}
				}
			}
		}
		JOINT RightShoulder
		{
			OFFSET 0.00000 7.40057 0.00000
			CHANNELS 3 Xrotation Yrotation Zrotation
			JOINT RightArm
			{
				OFFSET -8.34930 0.00000 0.00000
				CHANNELS 3 Xrotation Yrotation Zrotation
				JOINT RightForeArm
				{
					OFFSET -11.33484 0.00000 0.00000
					CHANNELS 3 Yrotation Zrotation Xrotation
					JOINT RightHand
					{
						OFFSET -9.69418 0.00000 0.00000
						CHANNELS 3 Xrotation Yrotation Zrotation
						JOINT RightHandThumb1
						{
							OFFSET 0.00000 0.00000 0.00000
							CHANNELS 3 Xrotation Zrotation Yrotation
							End Site
							{
								OFFSET 0.00000 0.00000 3.93700
							}
						}
						End Site
						{
							OFFSET -3.93700 0.00000 0.00000
						}
					}
				}
			}
		}
	}
	JOINT LeftUpLeg
	{
		OFFSET 2.70060 0.00000 0.00000
		CHANNELS 3 Xrotation Yrotation Zrotation
		JOINT LeftLeg
		{
			OFFSET 0.00000 -16.75718 0.00000
			CHANNELS 3 Xrotation Yrotation Zrotation
			JOINT LeftFoot
			{
				OFFSET 0.00000 -16.75915 0.00000
				CHANNELS 3 Xrotation Yrotation Zrotation
				JOINT LeftToeBase
				{
					OFFSET 0.00000 -1.51183 5.64225
					CHANNELS 3 Xrotation Yrotation Zrotation
					End Site
					{
						OFFSET 0.00000 0.00000 2.95275
					}
				}
			}
		}
	}
	JOINT RightUpLeg
	{
		OFFSET -2.70060 0.00000 0.00000
		CHANNELS 3 Xrotation Yrotation Zrotation
		JOINT RightLeg
		{
			OFFSET 0.00000 -16.75718 0.00000
			CHANNELS 3 Xrotation Yrotation Zrotation
			JOINT RightFoot
			{
				OFFSET 0.00000 -16.75915 0.00000
				CHANNELS 3 Xrotation Yrotation Zrotation
				JOINT RightToeBase
				{
					OFFSET 0.00000 -1.51183 5.64225
					CHANNELS 3 Xrotation Yrotation Zrotation
					End Site
					{
						OFFSET 0.00000 0.00000 2.95275
					}
				}
			}
		}
	}
}
MOTION
Frames: 7
Frame Time: 0.008333
 16.7863 34.9436 -7.3739 -172.0088 9.4001 178.3826 19.2073 4.9460 -2.0596 14.3309 23.9025 10.5278 1.1857 13.5759 29.4643 -37.9053 3.2248 -28.5329 -3.4533 0.0000 23.9927 0.9790 2.9229 -18.5265 33.1476 -0.0000 26.2537 -6.2058 -24.3472 -26.0476 -39.9101 5.0190 38.7121 4.3827 -0.0000 16.9821 6.6443 -14.2829 25.2748 32.8623 0.0000 -24.3270 12.3360 19.0406 6.4312 1.9570 0.0000 0.0000 -13.0019 19.1508 -4.9414 15.0594 0.0000 -0.0000 9.8196 -8.2276 -6.9647 3.9474 -0.0000 0.0000 -9.2790 -15.5188 7.6594 3.2266 0.0000 -0.0000
 16.7871 34.9435 -7.3739 -172.0151 9.4022 178.3787 19.2115 4.9361 -2.0531 14.3273 23.9157 10.5101 1.1420 13.5496 29.4744 -37.8927 3.2849 -28.5088 -3.4505 0.0000 24.0082 0.9719 2.8972 -18.5532 33.1476 -0.0000 26.2537 -6.2118 -24.3188 -26.0536 -39.9056 5.0024 38.7025 4.3880 -0.0000 17.0122 6.6176 -14.2554 25.2269 32.8623 0.0000 -24.3270 12.3398 19.0051 6.4322 1.9470 0.0000 -0.0000 -13.0078 19.1996 -4.9532 15.0935 -0.0000 -0.0000 9.8085 -8.2154 -6.9605 3.9627 -0.0000 -0.0000 -9.2907 -15.5207 7.6628 3.2649 0.0000 0.0000
 16.7885 34.9434 -7.3743 -172.0217 9.4040 178.3727 19.2182 4.9427 -2.0503 14.3034 23.9320 10.5274 1.1643 13.5719 29.4635 -37.9235 3.2907 -28.5008 -3.4571 0.0000 23.9485 0.9704 2.8940 -18.5458 33.1476 -0.0000 26.2537 -6.2020 -24.3237 -26.0409 -39.9234 5.0105 38.6897 4.3959 -0.0000 16.9996 6.6058 -14.2129 25.2515 32.8623 0.0000 -24.3270 12.3257 19.0147 6.4430 1.9543 0.0000 -0.0000 -13.0173 19.1935 -4.9364 15.0929 0.0000 0.0000 9.7951 -8.2193 -6.9532 3.9757 -0.0000 0.0000 -9.2932 -15.5162 7.6525 3.2297 0.0000 -0.0000
 16.7923 34.9432 -7.3712 -172.0411 9.4405 178.3582 19.2130 4.9867 -2.0498 14.2950 23.9327 10.5239 1.1494 13.5574 29.4698 -37.9459 3.3315 -28.4933 -3.4387 0.0000 23.8988 0.9517 2.8510 -18.4679 33.1476 -0.0000 26.2537 -6.2220 -24.3082 -26.0506 -39.8991 5.0022 38.6833 4.4125 -0.0000 16.9847 6.6075 -14.2482 25.2038 32.8623 0.0000 -24.3270 12.2805 19.0541 6.4692 1.9884 0.0000 0.0000 -13.0204 19.1716 -4.9254 15.0611 0.0000 -0.0000 9.7694 -8.1466 -6.9333 3.9872 0.0000 -0.0000 -9.2996 -15.5465 7.6481 3.2177 0.0000 -0.0000
 16.7939 34.9432 -7.3716 -172.0462 9.4436 178.3515 19.2249 4.9969 -2.0467 14.2815 23.9417 10.5295 1.2041 13.5963 29.4377 -37.9657 3.3025 -28.4835 -3.4429 0.0000 23.7579 0.9460 2.8373 -18.4474 33.1476 -0.0000 26.2537 -6.2386 -24.2991 -26.0598 -39.8698 5.0001 38.6782 4.4248 -0.0000 16.9494 6.5960 -14.2536 25.1567 32.8623 0.0000 -24.3270 12.2811 19.0457 6.4759 1.9787 0.0000 -0.0000 -13.0166 19.1910 -4.9268 15.0958 -0.0000 -0.0000 9.7646 -8.1527 -6.9252 3.9890 -0.0000 0.0000 -9.2961 -15.5432 7.6552 3.2218 0.0000 0.0000
 16.7948 34.9434 -7.3729 -172.0513 9.4480 178.3477 19.2279 5.0113 -2.0431 14.2925 23.9309 10.5319 1.2664 13.6323 29.4089 -38.1237 3.3428 -28.4867 -3.4226 0.0000 23.7842 0.8942 2.6989 -18.3386 33.1476 -0.0000 26.2537 -6.2137 -24.3140 -26.0536 -39.9023 4.9861 38.6778 4.4519 -0.0000 16.9721 6.5908 -14.2863 25.0899 32.8623 0.0000 -24.3270 12.2804 19.0370 6.4804 1.9767 0.0000 -0.0000 -13.0136 19.2035 -4.9335 15.0504 -0.0000 0.0000 9.7613 -8.1589 -6.9190 3.9868 0.0000 -0.0000 -9.2986 -15.5320 7.6372 3.2366 0.0000 0.0000
 16.7949 34.9436 -7.3753 -172.0504 9.4627 178.3438 19.2408 5.0212 -2.0400 14.2922 23.9438 10.5303 1.2776 13.6553 29.3919 -38.1332 3.3572 -28.4972 -3.4660 0.0000 23.7445 0.9365 2.8299 -18.3196 33.1476 -0.0000 26.2537 -6.2193 -24.3127 -26.0600 -39.9191 4.9826 38.6844 4.4883 -0.0000 16.9330 6.6286 -14.3694 25.0919 32.8623 0.0000 -24.3270 12.2830 19.0550 6.4822 1.9813 0.0000 -0.0000 -13.0110 19.2055 -4.9590 15.0500 0.0000 0.0000 9.7672 -8.1692 -6.9167 3.9745 -0.0000 -0.0000 -9.2900 -15.5142 7.6360 3.2296 0.0000 -0.0000
